<svg width="35" height="35" viewBox="0 0 35 35" fill="none" xmlns="http://www.w3.org/2000/svg">
<path d="M28.6806 6.80556H10.2083C9.82156 6.80556 9.45063 6.9592 9.17714 7.23269C8.90365 7.50618 8.75 7.87712 8.75 8.26389V31.5972C8.75 31.984 8.90365 32.3549 9.17714 32.6284C9.45063 32.9019 9.82156 33.0556 10.2083 33.0556H28.6806C29.0673 33.0556 29.4383 32.9019 29.7118 32.6284C29.9852 32.3549 30.1389 31.984 30.1389 31.5972V8.26389C30.1389 7.87712 29.9852 7.50618 29.7118 7.23269C29.4383 6.9592 29.0673 6.80556 28.6806 6.80556V6.80556ZM28.1944 31.1111H10.6944V8.75H28.1944V31.1111Z" fill="#610094"/>
<path d="M25.2778 3.40278C25.2778 3.016 25.1241 2.64507 24.8506 2.37158C24.5771 2.09809 24.2062 1.94444 23.8194 1.94444H5.34722C4.96044 1.94444 4.58951 2.09809 4.31602 2.37158C4.04253 2.64507 3.88889 3.016 3.88889 3.40278V26.7361C3.88889 27.1229 4.04253 27.4938 4.31602 27.7673C4.58951 28.0408 4.96044 28.1944 5.34722 28.1944H5.83333V3.88889H25.2778V3.40278Z" fill="#610094"/>
</svg>
