<svg width="50" height="50" viewBox="0 0 50 50" fill="none" xmlns="http://www.w3.org/2000/svg">
<path d="M29.9167 32.0139C29.0595 32.0468 28.211 31.8326 27.4722 31.3967C26.7335 30.9609 26.1356 30.3217 25.75 29.5555C25.3227 28.5469 25.3028 27.4119 25.6944 26.3889C26.1865 25.1165 27.1593 24.0888 28.4028 23.5278C29.4943 22.9558 30.7662 22.8332 31.9469 23.1861C33.1276 23.539 34.1236 24.3395 34.7222 25.4166C34.9539 25.9194 35.083 26.4633 35.1021 27.0166C35.1211 27.5698 35.0298 28.1213 34.8333 28.6389C34.5866 29.2797 34.2135 29.8645 33.7363 30.3584C33.2591 30.8523 32.6876 31.2452 32.0556 31.5139C31.3849 31.8267 30.6565 31.997 29.9167 32.0139V32.0139ZM30.6667 25.1944C30.1882 25.1912 29.7146 25.2907 29.2778 25.4861C28.5891 25.8102 28.0519 26.3872 27.7778 27.0972C27.6742 27.3361 27.6207 27.5937 27.6207 27.8541C27.6207 28.1145 27.6742 28.3722 27.7778 28.6111C28.1184 29.1724 28.665 29.5782 29.3009 29.7417C29.9368 29.9052 30.6114 29.8135 31.1806 29.4861C31.8901 29.1807 32.4496 28.6063 32.7361 27.8889C32.8393 27.6474 32.8924 27.3875 32.8924 27.125C32.8924 26.8624 32.8393 26.6025 32.7361 26.3611C32.5382 25.9896 32.2383 25.6825 31.8716 25.4758C31.505 25.2691 31.0869 25.1715 30.6667 25.1944V25.1944Z" fill="#610094"/>
<path d="M22.4861 47.0417C19.9774 47.085 17.4848 46.6325 15.1515 45.7102C12.8181 44.7878 10.6898 43.4136 8.88888 41.6667C6.98241 39.8864 5.45762 37.7373 4.40711 35.3497C3.35659 32.9622 2.80226 30.3861 2.77777 27.7778C2.77777 21.6667 5.55555 15.5 10.6667 10.4167C13.0473 8.02104 15.8839 6.12679 19.0089 4.84578C22.1339 3.56477 25.4839 2.92298 28.8611 2.95832H29.0278C33.6528 2.95832 38.5417 5.02777 39.0833 9.52777C39.375 11.9861 38.2639 14.3472 37.2917 16.4722C36.5278 18.0972 35.75 19.7917 36.2917 20.375C36.8333 20.9583 37.6805 20.5417 39.1944 20.0972C40.6834 19.5015 42.3079 19.3284 43.8889 19.5972C44.4492 19.7567 44.9699 20.032 45.4172 20.4052C45.8646 20.7784 46.2287 21.2412 46.4861 21.7639C47.7917 24.3055 47.1389 28.25 46.1667 30.8472C44.9148 34.2768 42.9013 37.3777 40.2778 39.9167C35.4187 44.3885 29.0887 46.9235 22.4861 47.0417ZM28.8611 5.77777C25.8425 5.75327 22.8497 6.33571 20.0606 7.49049C17.2714 8.64527 14.7428 10.3488 12.625 12.5C8.04166 16.9861 5.55555 22.4444 5.55555 27.7778C5.57949 30.0225 6.05972 32.239 6.96702 34.2923C7.87432 36.3457 9.18975 38.1931 10.8333 39.7222C18.3055 47.0139 31.1389 44.6528 38.4305 37.875C40.7159 35.6281 42.4715 32.8998 43.5694 29.8889C44.5417 27.25 44.7361 24.4444 44.0139 23.0555C43.9348 22.8755 43.8184 22.7143 43.6723 22.5826C43.5263 22.4509 43.3539 22.3517 43.1667 22.2917C42.0828 22.195 40.9916 22.3617 39.9861 22.7778C38.1667 23.3194 35.8194 24.0139 34.2639 22.2917C32.4305 20.3472 33.625 17.7778 34.7778 15.3472C35.7524 13.7058 36.2837 11.8392 36.3194 9.93055C35.9861 7.15277 32.4167 5.83332 29.0139 5.76388L28.8611 5.77777Z" fill="#610094"/>
<path d="M33.1528 37.0139C32.9952 36.4981 32.7237 36.0243 32.3582 35.6276C31.9928 35.2309 31.5429 34.9215 31.0417 34.7222L30.5556 34.5833L29.9167 36.7083H30.1389C30.3318 36.7791 30.5066 36.8918 30.6508 37.0383C30.7949 37.1848 30.9047 37.3615 30.9722 37.5555C31.2083 38.3889 30.4028 39.375 29.2222 39.7083C28.0417 40.0417 26.8472 39.6111 26.6111 38.7917L24.4722 39.3889C24.7499 40.2011 25.2857 40.9001 25.998 41.3791C26.7102 41.8581 27.5597 42.0908 28.4167 42.0417C28.886 42.0358 29.3527 41.9704 29.8056 41.8472C30.8892 41.6478 31.8497 41.0274 32.477 40.1216C33.1043 39.2158 33.3473 38.0984 33.1528 37.0139Z" fill="#610094"/>
<path d="M20.9306 35.5417C20.7043 34.8666 20.2924 34.2688 19.7422 33.8168C19.192 33.3649 18.5257 33.077 17.8194 32.9861L17.4444 35.1806C17.7452 35.1909 18.0365 35.2883 18.283 35.4608C18.5295 35.6334 18.7207 35.8738 18.8333 36.1528C19.0694 36.9722 18.2639 37.9583 17.0833 38.2917C16.4917 38.4793 15.8532 38.4548 15.2778 38.2222C15.0848 38.1515 14.91 38.0387 14.7659 37.8922C14.6218 37.7457 14.512 37.5691 14.4444 37.375V37.1944L12.25 37.4167C12.258 37.6089 12.2859 37.7997 12.3333 37.9861C12.4865 38.4978 12.7517 38.9689 13.1097 39.3653C13.4676 39.7617 13.9093 40.0734 14.4028 40.2778C14.98 40.5139 15.5986 40.632 16.2222 40.625C16.6919 40.624 17.1592 40.5585 17.6111 40.4306C18.1508 40.329 18.6651 40.1217 19.1244 39.8206C19.5837 39.5196 19.9789 39.1307 20.2874 38.6764C20.5959 38.222 20.8116 37.7112 20.9219 37.1732C21.0323 36.6353 21.0352 36.0808 20.9306 35.5417V35.5417Z" fill="#610094"/>
<path d="M14.9722 26.625C14.8146 26.1092 14.5431 25.6354 14.1776 25.2387C13.8122 24.842 13.3623 24.5326 12.8611 24.3333C12.6368 24.2385 12.4043 24.1641 12.1666 24.1111L11.6528 26.2778C11.7722 26.3021 11.8886 26.3393 12 26.3889C12.1915 26.4582 12.3654 26.5687 12.5094 26.7128C12.6534 26.8568 12.764 27.0307 12.8333 27.2222C13.0694 28.0555 12.2639 29.0416 11.0833 29.375C9.90275 29.7083 8.70831 29.2916 8.4722 28.4583C8.43072 28.2801 8.43072 28.0948 8.4722 27.9166L6.30553 27.4444C6.17379 27.9734 6.17379 28.5266 6.30553 29.0555C6.5844 29.8726 7.12451 30.5751 7.84245 31.0545C8.56039 31.534 9.41621 31.7637 10.2778 31.7083C10.7471 31.7024 11.2137 31.6371 11.6666 31.5139C12.2051 31.4107 12.7179 31.2022 13.1756 30.9005C13.6333 30.5988 14.027 30.2097 14.3341 29.7555C14.6412 29.3013 14.8556 28.791 14.9651 28.2538C15.0746 27.7166 15.077 27.1631 14.9722 26.625V26.625Z" fill="#610094"/>
<path d="M18.6805 15.8333C18.523 15.3175 18.2514 14.8437 17.886 14.447C17.5206 14.0504 17.0706 13.7409 16.5694 13.5416C16.4795 13.5056 16.3865 13.4778 16.2917 13.4583L15.5694 15.5555C15.6155 15.5494 15.6622 15.5494 15.7083 15.5555C15.8998 15.6248 16.0738 15.7354 16.2178 15.8794C16.3618 16.0234 16.4724 16.1974 16.5417 16.3889C16.7778 17.2222 15.9722 18.2083 14.7917 18.5416C14.2067 18.708 13.584 18.6837 13.0139 18.4722C12.821 18.4014 12.6461 18.2887 12.502 18.1422C12.3579 17.9957 12.2481 17.8191 12.1805 17.625C12.1524 17.4782 12.1524 17.3273 12.1805 17.1805L9.9861 16.9166C9.92352 17.3529 9.95189 17.7974 10.0694 18.2222C10.2158 18.7442 10.4796 19.2259 10.8407 19.6303C11.2018 20.0347 11.6506 20.3512 12.1528 20.5555C12.7291 20.7961 13.3477 20.9189 13.9722 20.9166C14.4415 20.9108 14.9082 20.8454 15.3611 20.7222C15.9008 20.6206 16.4151 20.4133 16.8744 20.1123C17.3337 19.8112 17.7289 19.4223 18.0374 18.968C18.3459 18.5137 18.5615 18.0028 18.6719 17.4649C18.7823 16.9269 18.7852 16.3724 18.6805 15.8333V15.8333Z" fill="#610094"/>
<path d="M29.1666 9.41667C29.0118 8.89948 28.7413 8.42433 28.3755 8.02727C28.0097 7.6302 27.5583 7.32165 27.0555 7.125L26.6389 6.98611L25.9722 9.11111H26.1805C26.3735 9.18189 26.5483 9.29459 26.6924 9.4411C26.8365 9.5876 26.9463 9.76426 27.0139 9.95834C27.25 10.7917 26.4444 11.7639 25.2639 12.0972C24.0833 12.4306 22.8889 12.0139 22.6528 11.1944C22.5904 10.9241 22.6197 10.6407 22.7361 10.3889L20.6805 9.58334C20.3697 10.2972 20.3109 11.0955 20.5139 11.8472C20.7935 12.6582 21.3298 13.3558 22.0416 13.8345C22.7534 14.3132 23.6018 14.5469 24.4583 14.5C24.9288 14.4966 25.3964 14.4265 25.8472 14.2917C26.3855 14.19 26.8984 13.9832 27.3567 13.683C27.815 13.3829 28.2095 12.9953 28.5178 12.5425C28.8262 12.0897 29.0422 11.5806 29.1535 11.0442C29.2648 10.5078 29.2693 9.95477 29.1666 9.41667V9.41667Z" fill="#610094"/>
</svg>
